<?xml version="1.0" standalone="no"?>
<!DOCTYPE svg PUBLIC "-//W3C//DTD SVG 20010904//EN"
 "http://www.w3.org/TR/2001/REC-SVG-20010904/DTD/svg10.dtd">
<svg version="1.0" xmlns="http://www.w3.org/2000/svg"
 width="200.000000pt" height="200.000000pt" viewBox="0 0 200.000000 200.000000"
 preserveAspectRatio="xMidYMid meet">
<metadata>
Created by potrace 1.14, written by Peter Selinger 2001-2017
</metadata>
<g transform="translate(0.000000,200.000000) scale(0.100000,-0.100000)"
fill="grey" stroke="none">
<path d="M883 1985 c-141 -31 -295 -150 -356 -276 -66 -136 -75 -304 -23 -429
51 -121 50 -116 27 -163 -34 -70 -25 -126 30 -183 l31 -32 -12 -78 c-35 -234
-140 -374 -272 -362 -64 7 -115 43 -163 118 -40 61 -54 70 -74 46 -8 -10 -8
-23 3 -53 36 -103 87 -173 147 -203 48 -25 47 -25 51 6 4 31 28 50 52 41 9 -4
26 -27 37 -52 17 -39 24 -45 49 -45 37 0 126 33 151 56 11 9 19 12 19 6 0 -13
-98 -115 -125 -131 -20 -11 -20 -11 3 -31 49 -41 139 -38 192 7 39 32 56 66
80 156 l20 72 -6 -65 c-11 -140 -82 -220 -195 -220 -92 0 -145 44 -200 165
-45 99 -72 83 -44 -27 34 -133 94 -223 184 -276 39 -23 57 -27 121 -27 66 1
83 5 137 34 99 53 173 143 229 279 22 52 24 55 31 32 17 -64 87 -182 137 -233
76 -77 150 -111 240 -112 60 0 79 4 125 30 62 35 110 89 146 167 47 103 59
221 20 188 -8 -7 -15 -17 -15 -22 0 -5 -12 -34 -27 -64 -33 -67 -90 -121 -138
-130 -134 -25 -228 53 -240 198 l-6 63 24 -75 c29 -96 49 -124 101 -150 52
-25 89 -25 144 0 37 17 57 40 33 40 -12 0 -108 96 -122 122 l-11 21 30 -22
c38 -27 105 -51 142 -51 23 0 30 7 44 45 13 33 25 47 43 51 30 8 57 -19 49
-49 -6 -25 14 -21 66 12 97 62 189 261 119 261 -10 0 -33 -25 -56 -61 -71
-109 -164 -146 -254 -99 -83 42 -151 166 -177 323 l-17 98 31 32 c56 58 65
113 31 182 -24 47 -25 41 27 165 32 78 43 199 25 291 -58 292 -344 478 -638
414z"/>
<path d="M184 789 c-15 -26 -8 -154 12 -199 26 -56 85 -110 122 -110 59 1 124
44 167 112 l17 28 -36 -15 c-58 -24 -119 -20 -157 12 -35 29 -63 85 -74 146
-5 27 -12 37 -26 37 -10 0 -21 -5 -25 -11z"/>
<path d="M1761 750 c-14 -66 -33 -102 -71 -134 -37 -31 -99 -35 -156 -11 l-36
15 17 -28 c43 -68 108 -111 167 -112 31 0 91 48 114 91 22 44 34 120 26 175
-6 40 -11 50 -29 52 -18 3 -23 -4 -32 -48z"/>
<path d="M30 310 c0 -19 40 -89 70 -124 60 -68 183 -126 267 -126 l33 0 -34
50 c-19 28 -37 59 -41 69 -4 13 -19 20 -51 25 -63 8 -124 37 -171 80 -39 35
-73 47 -73 26z"/>
<path d="M1910 289 c-51 -45 -125 -79 -181 -86 -45 -5 -52 -9 -69 -43 -11 -21
-32 -52 -47 -70 l-27 -33 59 5 c89 9 167 42 229 99 54 50 103 129 91 149 -9
15 -17 12 -55 -21z"/>
</g>
</svg>
